<svg width="134" height="20" viewBox="0 0 134 20" fill="none" xmlns="http://www.w3.org/2000/svg">
<path d="M47.4735 14.5753H36.4377L34.0592 19.8111H31.8711L40.9091 0.188477H42.9545L51.9925 19.8111H49.8044L47.4735 14.5753ZM46.7124 12.8772L41.9556 2.31112L37.1988 12.8772H46.7124Z" fill="#E5E5D6"/>
<path d="M68.8317 19.8111L64.3127 13.4904C63.7894 13.5375 63.2662 13.5847 62.7429 13.5847H57.4153V19.8111H55.3223V0.188477H62.7429C65.2641 0.188477 67.2619 0.801684 68.689 1.98093C70.116 3.16017 70.8296 4.81112 70.8296 6.93376C70.8296 8.49036 70.449 9.76395 69.6403 10.8017C68.8793 11.8394 67.7376 12.6413 66.3106 13.0658L71.1625 19.8111H68.8317ZM67.1668 10.5187C68.2133 9.66961 68.7366 8.44319 68.7366 6.88659C68.7366 5.28282 68.2133 4.0564 67.1668 3.20734C66.1203 2.35829 64.6457 1.93376 62.6478 1.93376H57.3677V11.7923H62.6478C64.6457 11.8394 66.1203 11.4149 67.1668 10.5187Z" fill="#E5E5D6"/>
<path d="M89.7142 10H91.712V17.5C90.8082 18.3019 89.7142 18.9151 88.4298 19.3396C87.1455 19.7642 85.8136 20 84.4341 20C82.4362 20 80.6762 19.5755 79.1064 18.7264C77.5367 17.8774 76.2999 16.6981 75.3961 15.1415C74.4923 13.6321 74.0166 11.934 74.0166 10C74.0166 8.11321 74.4923 6.41509 75.3961 4.85849C76.2999 3.34906 77.5367 2.12264 79.1064 1.27359C80.6762 0.424529 82.4838 0 84.4816 0C86.0038 0 87.3833 0.235849 88.6201 0.707547C89.9044 1.17925 90.9509 1.88679 91.8072 2.83019L90.5228 4.15094C88.9531 2.64151 86.9552 1.83962 84.5768 1.83962C82.9594 1.83962 81.5324 2.16981 80.2481 2.87736C78.9637 3.58491 77.9648 4.5283 77.2037 5.80189C76.4902 7.0283 76.1096 8.4434 76.1096 9.95283C76.1096 11.5094 76.4902 12.8774 77.2037 14.1038C77.9172 15.3302 78.9637 16.3208 80.2481 17.0283C81.5324 17.7359 82.9594 18.1132 84.5768 18.1132C86.6222 18.1132 88.3347 17.5943 89.7617 16.6038V10H89.7142Z" fill="#E5E5D6"/>
<path d="M100.988 18.6792C99.3702 17.8302 98.1335 16.6038 97.2772 15.0943C96.3734 13.5849 95.9453 11.8868 95.9453 10C95.9453 8.11321 96.3734 6.4151 97.2772 4.90566C98.181 3.39623 99.4178 2.21698 100.988 1.32075C102.557 0.471698 104.365 0 106.315 0C108.266 0 110.026 0.424529 111.595 1.27359C113.165 2.12264 114.402 3.34906 115.306 4.85849C116.209 6.36792 116.685 8.06604 116.685 10C116.685 11.8868 116.209 13.5849 115.306 15.1415C114.402 16.6509 113.165 17.8774 111.595 18.7264C110.026 19.5755 108.266 20 106.315 20C104.365 20 102.557 19.5283 100.988 18.6792ZM110.549 17.0755C111.833 16.3679 112.785 15.4245 113.498 14.1509C114.212 12.9245 114.592 11.5094 114.592 10C114.592 8.49057 114.212 7.07547 113.498 5.84906C112.785 4.62264 111.786 3.63208 110.549 2.92453C109.264 2.21698 107.885 1.88679 106.315 1.88679C104.745 1.88679 103.318 2.21698 102.082 2.92453C100.797 3.63208 99.7983 4.57547 99.0848 5.84906C98.3713 7.07547 97.9908 8.49057 97.9908 10C97.9908 11.5566 98.3713 12.9245 99.0848 14.1509C99.7983 15.3774 100.797 16.3679 102.082 17.0755C103.366 17.783 104.793 18.1132 106.315 18.1132C107.885 18.1132 109.264 17.783 110.549 17.0755Z" fill="#E5E5D6"/>
<path d="M124.915 1.98093H117.97V0.188477H134V1.98093H127.055V19.8111H124.962V1.98093H124.915Z" fill="#E5E5D6"/>
<path d="M0 19.9058L6.65957 0.283203H8.84771L14.651 17.0285L20.4544 0.283203H22.6425L29.3021 19.9058H27.1615L21.4533 3.01905L15.5548 19.9058H13.6045L7.80121 2.97188L1.99787 19.9058H0Z" fill="#E5E5D6"/>
</svg>
